<svg width="512" height="521" viewBox="0 0 512 521" fill="none" xmlns="http://www.w3.org/2000/svg">
<g filter="url(#filter0_d_226_19)">
<path d="M440.416 69.8433L432.363 68.1104L412.046 63.7385L391.729 59.3666L391.701 59.3605L391.672 59.3552L361.196 53.7226L361.016 53.6893H360.833L358.115 53.6893C266.411 38.5872 165.476 39.4449 78.7328 67.4923L78.7294 67.4934L71.3414 69.8966L69.96 70.3459V71.7985V286.549C69.96 330.018 92.971 370.595 130.087 392.438L130.089 392.439L254.947 465.7L255.959 466.294L256.971 465.7L381.903 392.402L381.905 392.401C418.985 370.595 441.996 330.017 441.996 286.549V283.996V247.272V236.007V235.986V71.7985V70.1831L440.416 69.8433ZM67.5512 31.7202L67.5521 31.7199C128.489 11.9953 191.855 2.00204 255.959 2.00204C305.076 2.00204 354.304 7.99047 402.244 19.8178L403.021 20.0095L403.56 19.7012L413.449 22.6823L413.479 22.6911L413.508 22.6991C425.378 25.8841 435.208 28.7662 444.369 31.7206L444.38 31.7243L478.888 42.6231V286.549C478.888 343.415 448.779 396.452 400.343 424.926L255.959 509.683L111.614 424.964C63.1757 396.452 33.0303 343.414 33.0303 286.549V42.8758L67.5512 31.7202Z" fill="url(#paint0_linear_226_19)" stroke="black" stroke-width="4"/>
<mask id="path-3-inside-1_226_19" fill="white">
<path d="M127.329 160.671C124.87 161.788 122.221 165.074 121.716 167.44C120.392 174.077 104.941 282.963 104.941 285.723C104.941 288.615 105.256 289.535 106.896 291.506C108.031 292.82 109.797 294.332 110.869 294.923C111.878 295.515 118.626 296.895 125.816 298.143C139.816 300.443 142.339 300.377 145.933 297.749C148.33 295.975 149.465 293.083 150.348 286.709C150.789 283.752 151.231 281.321 151.42 281.321C151.735 281.321 159.807 282.503 162.645 282.963C164.474 283.292 164.537 283.358 164.6 287.038C164.663 294.66 170.276 301.297 178.601 303.597C181.06 304.32 181.249 304.517 181.249 306.686C181.249 310.103 184.024 315.623 187.304 318.777C190.268 321.603 195.754 324.691 197.962 324.691C200.736 324.757 201.935 325.546 203.007 328.043C204.52 331.526 210.133 336.914 214.421 338.951C219.025 341.12 224.827 341.645 228.17 340.2L230.629 339.148L233.215 341.843C236.873 345.72 242.422 348.348 247.026 348.348C251.693 348.348 254.152 347.231 257.116 343.748L259.576 340.988L263.738 343.157C273.45 348.348 286.757 345.325 290.288 337.243C291.297 334.943 291.423 334.877 294.955 334.746C301.577 334.483 308.766 329.686 310.658 324.297C311.415 322.129 311.478 322.063 315.01 322.063C324.659 322.063 334.497 313.323 334.497 304.846C334.497 302.415 334.56 302.349 336.893 302.349C345.092 302.349 354.677 291.769 355.056 282.306L355.245 278.364L359.723 277.641C362.939 277.181 364.326 277.181 364.452 277.641C364.579 278.035 364.957 281.583 365.272 285.526C365.966 293.083 366.597 294.726 369.939 297.289C370.822 298.012 372.777 298.8 374.227 299.063C377.885 299.786 402.291 297.026 404.877 295.58C407.336 294.266 410.048 290.98 410.616 288.681C410.805 287.761 409.228 267.127 407.084 242.878C399.579 158.7 400.399 166.585 398.633 164.088C395.165 159.423 391.444 158.897 373.597 161C362.497 162.248 360.29 162.971 357.578 166.322C355.371 169.082 355.056 170.725 355.56 177.494L355.939 183.211L350.452 183.605C330.713 185.116 330.965 185.116 324.091 182.554C320.622 181.305 310.406 177.231 301.388 173.551C276.351 163.365 279.315 164.088 265.441 164.088C251.314 164.023 248.981 164.548 241.476 169.674C238.764 171.514 234.791 173.551 232.71 174.208C225.899 176.377 189.196 187.219 187.178 187.679C185.538 188.008 176.078 187.088 167.312 185.642L165.105 185.314L165.988 179.597C166.934 173.091 166.492 170.397 163.907 167.505C161.258 164.483 159.114 163.76 146.942 161.723C134.203 159.554 130.23 159.357 127.329 160.671ZM144.987 171.317C150.915 172.237 156.024 173.354 156.465 173.814C157.033 174.34 155.33 187.482 148.897 231.839C144.294 263.381 140.257 289.469 139.879 289.863C139.059 290.718 115.662 286.906 114.653 285.723C113.707 284.672 130.356 170.331 131.554 169.542C131.996 169.214 132.816 169.082 133.32 169.28C133.825 169.411 139.122 170.331 144.987 171.317ZM390.435 169.477C391.066 169.937 393.525 195.236 400.525 274.289C401.156 281.781 401.345 286.183 400.967 286.578C400.273 287.301 377.065 289.929 375.804 289.469C374.795 289.009 375.11 292.032 369.434 227.896C366.344 193.133 364.768 172.631 365.146 172.237C365.461 171.908 370.696 171.054 376.75 170.397C390.498 168.82 389.552 168.885 390.435 169.477ZM276.477 174.208C278.369 174.602 289.784 179.005 301.955 183.999C314.127 189.059 325.668 193.462 327.56 193.922C330.208 194.448 333.992 194.448 343.452 193.856C350.326 193.396 356.065 193.199 356.191 193.331C356.38 193.593 362.876 264.235 362.876 266.272C362.876 266.995 361.362 267.521 356.443 268.375L349.947 269.427L348.056 267.587C347.047 266.535 329.704 251.947 309.523 235.19C275.72 206.933 272.63 204.502 268.657 203.122C266.261 202.333 263.738 201.676 262.981 201.676C262.288 201.676 257.558 202.925 252.576 204.502L243.557 207.328L240.467 212.059C233.593 222.704 227.728 227.37 220.034 228.356C216.187 228.881 212.782 227.304 211.836 224.479C211.331 222.902 212.088 220.996 218.458 207.853L225.71 192.936L236.746 184.919C248.035 176.705 250.81 174.997 254.089 174.142C256.99 173.42 272.756 173.485 276.477 174.208ZM216.566 189.651C216.566 189.782 213.286 196.813 209.25 205.225C202.25 219.879 201.935 220.667 202.187 223.953C202.565 228.553 205.277 233.087 209.25 235.65C211.962 237.358 213.034 237.621 217.764 237.818C229.242 238.344 236.999 233.481 246.837 219.747C249.675 215.739 249.675 215.739 255.981 213.702C259.513 212.585 262.666 211.665 263.044 211.665C265.252 211.665 270.297 215.016 279 222.244C327.623 262.855 342.821 275.735 343.956 277.378C346.101 280.466 346.227 282.898 344.398 286.118C342.127 290.126 338.344 292.689 334.812 292.689C331.722 292.689 332.857 293.412 316.397 280.992C295.838 265.549 294.009 264.235 292.496 264.235C289.153 264.235 286.694 268.967 288.649 271.727C289.09 272.318 297.352 278.824 307.064 286.118C326.803 301.035 326.74 300.969 324.217 306.292C321.884 311.22 315.514 313.652 310.28 311.549C309.397 311.22 300.82 305.175 291.171 298.143C281.522 291.112 272.882 285.198 272 284.935C268.72 284.081 266.008 288.286 267.396 292.098C267.585 292.689 275.531 298.8 285.054 305.7C294.577 312.6 302.334 318.711 302.334 319.237C302.334 321.011 298.298 324.56 295.775 325.086C292.117 325.743 288.838 324.363 281.081 318.843C274.901 314.506 273.955 313.586 273.955 312.009C273.955 308 269.225 301.56 264.495 299.063C262.161 297.815 261.972 297.552 261.972 294.923C261.909 289.206 257.179 282.503 250.936 279.349C246.9 277.312 241.098 276.852 237.755 278.298C234.791 279.612 234.854 279.612 234.854 278.298C234.854 277.772 233.215 275.538 231.197 273.435C225.899 267.981 219.845 266.272 213.728 268.507C212.088 269.098 211.142 269.229 210.953 268.769C210.259 266.535 206.286 262.395 203.385 260.818C199.286 258.584 194.304 258.387 190.268 260.227C188.817 260.95 184.213 264.432 179.925 267.981C175.7 271.529 171.916 274.355 171.537 274.289C171.159 274.289 166.934 273.698 162.078 273.041C156.528 272.318 153.249 271.529 153.06 271.004C152.744 270.215 163.402 195.893 163.907 195.368C164.033 195.236 169.015 195.696 174.943 196.551C180.997 197.339 186.673 197.799 187.997 197.536C189.322 197.339 196.07 195.368 203.007 193.265C216.44 189.191 216.566 189.125 216.566 189.651ZM200.736 270.872C202.124 272.252 202.691 273.501 202.691 275.012C202.691 276.918 201.935 277.838 195.944 283.358C192.286 286.775 188.502 290.192 187.619 291.046C184.34 294.135 183.268 294.66 180.871 294.2C178.033 293.609 173.492 289.075 173.808 287.103C173.934 286.183 177.718 282.569 184.024 277.246C192.916 269.755 194.241 268.835 196.385 268.835C198.277 268.835 199.286 269.295 200.736 270.872ZM222.872 278.889C224.07 279.678 225.584 281.321 226.215 282.503C228.422 286.446 227.665 287.892 215.746 301.757C209.25 309.38 204.205 314.637 203.196 314.966C199.097 316.412 192.916 312.469 190.961 307.277C189.952 304.517 190.015 304.255 191.088 302.086C192.223 299.852 211.773 281.189 215.62 278.626C218.142 276.984 220.35 277.049 222.872 278.889ZM247.467 288.615C250.558 290.586 252.449 293.149 252.513 295.449C252.513 297.026 250.999 299.326 245.134 306.62C241.098 311.68 235.233 319.04 232.08 323.049C228.989 326.991 226.152 330.474 225.773 330.737C224.449 331.657 220.728 331.263 218.079 329.883C215.62 328.634 210.89 324.034 210.89 322.851C210.89 322.589 212.656 320.289 214.863 317.726C217.007 315.163 223.692 307.277 229.683 300.18C240.152 287.761 240.719 287.235 242.927 287.235C244.251 287.235 246.269 287.892 247.467 288.615ZM261.026 308.263C262.161 308.986 263.612 310.694 264.18 311.943L265.252 314.309L257.873 325.743C253.837 332.051 249.927 337.637 249.107 338.163C248.035 338.885 247.215 338.951 245.323 338.425C242.359 337.571 237.882 333.431 238.134 331.854C238.386 330.08 256.864 306.949 257.999 306.949C258.567 306.949 259.891 307.54 261.026 308.263ZM276.54 327.451C280.135 330.014 282.153 331.854 282.027 332.511C281.712 334.22 277.865 336.06 274.396 336.06C271.621 336.125 266.954 334.417 265.189 332.84C264.999 332.643 270.297 323.377 270.675 323.377C270.801 323.377 273.387 325.217 276.54 327.451Z"/>
</mask>
<path d="M127.329 160.671C124.87 161.788 122.221 165.074 121.716 167.44C120.392 174.077 104.941 282.963 104.941 285.723C104.941 288.615 105.256 289.535 106.896 291.506C108.031 292.82 109.797 294.332 110.869 294.923C111.878 295.515 118.626 296.895 125.816 298.143C139.816 300.443 142.339 300.377 145.933 297.749C148.33 295.975 149.465 293.083 150.348 286.709C150.789 283.752 151.231 281.321 151.42 281.321C151.735 281.321 159.807 282.503 162.645 282.963C164.474 283.292 164.537 283.358 164.6 287.038C164.663 294.66 170.276 301.297 178.601 303.597C181.06 304.32 181.249 304.517 181.249 306.686C181.249 310.103 184.024 315.623 187.304 318.777C190.268 321.603 195.754 324.691 197.962 324.691C200.736 324.757 201.935 325.546 203.007 328.043C204.52 331.526 210.133 336.914 214.421 338.951C219.025 341.12 224.827 341.645 228.17 340.2L230.629 339.148L233.215 341.843C236.873 345.72 242.422 348.348 247.026 348.348C251.693 348.348 254.152 347.231 257.116 343.748L259.576 340.988L263.738 343.157C273.45 348.348 286.757 345.325 290.288 337.243C291.297 334.943 291.423 334.877 294.955 334.746C301.577 334.483 308.766 329.686 310.658 324.297C311.415 322.129 311.478 322.063 315.01 322.063C324.659 322.063 334.497 313.323 334.497 304.846C334.497 302.415 334.56 302.349 336.893 302.349C345.092 302.349 354.677 291.769 355.056 282.306L355.245 278.364L359.723 277.641C362.939 277.181 364.326 277.181 364.452 277.641C364.579 278.035 364.957 281.583 365.272 285.526C365.966 293.083 366.597 294.726 369.939 297.289C370.822 298.012 372.777 298.8 374.227 299.063C377.885 299.786 402.291 297.026 404.877 295.58C407.336 294.266 410.048 290.98 410.616 288.681C410.805 287.761 409.228 267.127 407.084 242.878C399.579 158.7 400.399 166.585 398.633 164.088C395.165 159.423 391.444 158.897 373.597 161C362.497 162.248 360.29 162.971 357.578 166.322C355.371 169.082 355.056 170.725 355.56 177.494L355.939 183.211L350.452 183.605C330.713 185.116 330.965 185.116 324.091 182.554C320.622 181.305 310.406 177.231 301.388 173.551C276.351 163.365 279.315 164.088 265.441 164.088C251.314 164.023 248.981 164.548 241.476 169.674C238.764 171.514 234.791 173.551 232.71 174.208C225.899 176.377 189.196 187.219 187.178 187.679C185.538 188.008 176.078 187.088 167.312 185.642L165.105 185.314L165.988 179.597C166.934 173.091 166.492 170.397 163.907 167.505C161.258 164.483 159.114 163.76 146.942 161.723C134.203 159.554 130.23 159.357 127.329 160.671ZM144.987 171.317C150.915 172.237 156.024 173.354 156.465 173.814C157.033 174.34 155.33 187.482 148.897 231.839C144.294 263.381 140.257 289.469 139.879 289.863C139.059 290.718 115.662 286.906 114.653 285.723C113.707 284.672 130.356 170.331 131.554 169.542C131.996 169.214 132.816 169.082 133.32 169.28C133.825 169.411 139.122 170.331 144.987 171.317ZM390.435 169.477C391.066 169.937 393.525 195.236 400.525 274.289C401.156 281.781 401.345 286.183 400.967 286.578C400.273 287.301 377.065 289.929 375.804 289.469C374.795 289.009 375.11 292.032 369.434 227.896C366.344 193.133 364.768 172.631 365.146 172.237C365.461 171.908 370.696 171.054 376.75 170.397C390.498 168.82 389.552 168.885 390.435 169.477ZM276.477 174.208C278.369 174.602 289.784 179.005 301.955 183.999C314.127 189.059 325.668 193.462 327.56 193.922C330.208 194.448 333.992 194.448 343.452 193.856C350.326 193.396 356.065 193.199 356.191 193.331C356.38 193.593 362.876 264.235 362.876 266.272C362.876 266.995 361.362 267.521 356.443 268.375L349.947 269.427L348.056 267.587C347.047 266.535 329.704 251.947 309.523 235.19C275.72 206.933 272.63 204.502 268.657 203.122C266.261 202.333 263.738 201.676 262.981 201.676C262.288 201.676 257.558 202.925 252.576 204.502L243.557 207.328L240.467 212.059C233.593 222.704 227.728 227.37 220.034 228.356C216.187 228.881 212.782 227.304 211.836 224.479C211.331 222.902 212.088 220.996 218.458 207.853L225.71 192.936L236.746 184.919C248.035 176.705 250.81 174.997 254.089 174.142C256.99 173.42 272.756 173.485 276.477 174.208ZM216.566 189.651C216.566 189.782 213.286 196.813 209.25 205.225C202.25 219.879 201.935 220.667 202.187 223.953C202.565 228.553 205.277 233.087 209.25 235.65C211.962 237.358 213.034 237.621 217.764 237.818C229.242 238.344 236.999 233.481 246.837 219.747C249.675 215.739 249.675 215.739 255.981 213.702C259.513 212.585 262.666 211.665 263.044 211.665C265.252 211.665 270.297 215.016 279 222.244C327.623 262.855 342.821 275.735 343.956 277.378C346.101 280.466 346.227 282.898 344.398 286.118C342.127 290.126 338.344 292.689 334.812 292.689C331.722 292.689 332.857 293.412 316.397 280.992C295.838 265.549 294.009 264.235 292.496 264.235C289.153 264.235 286.694 268.967 288.649 271.727C289.09 272.318 297.352 278.824 307.064 286.118C326.803 301.035 326.74 300.969 324.217 306.292C321.884 311.22 315.514 313.652 310.28 311.549C309.397 311.22 300.82 305.175 291.171 298.143C281.522 291.112 272.882 285.198 272 284.935C268.72 284.081 266.008 288.286 267.396 292.098C267.585 292.689 275.531 298.8 285.054 305.7C294.577 312.6 302.334 318.711 302.334 319.237C302.334 321.011 298.298 324.56 295.775 325.086C292.117 325.743 288.838 324.363 281.081 318.843C274.901 314.506 273.955 313.586 273.955 312.009C273.955 308 269.225 301.56 264.495 299.063C262.161 297.815 261.972 297.552 261.972 294.923C261.909 289.206 257.179 282.503 250.936 279.349C246.9 277.312 241.098 276.852 237.755 278.298C234.791 279.612 234.854 279.612 234.854 278.298C234.854 277.772 233.215 275.538 231.197 273.435C225.899 267.981 219.845 266.272 213.728 268.507C212.088 269.098 211.142 269.229 210.953 268.769C210.259 266.535 206.286 262.395 203.385 260.818C199.286 258.584 194.304 258.387 190.268 260.227C188.817 260.95 184.213 264.432 179.925 267.981C175.7 271.529 171.916 274.355 171.537 274.289C171.159 274.289 166.934 273.698 162.078 273.041C156.528 272.318 153.249 271.529 153.06 271.004C152.744 270.215 163.402 195.893 163.907 195.368C164.033 195.236 169.015 195.696 174.943 196.551C180.997 197.339 186.673 197.799 187.997 197.536C189.322 197.339 196.07 195.368 203.007 193.265C216.44 189.191 216.566 189.125 216.566 189.651ZM200.736 270.872C202.124 272.252 202.691 273.501 202.691 275.012C202.691 276.918 201.935 277.838 195.944 283.358C192.286 286.775 188.502 290.192 187.619 291.046C184.34 294.135 183.268 294.66 180.871 294.2C178.033 293.609 173.492 289.075 173.808 287.103C173.934 286.183 177.718 282.569 184.024 277.246C192.916 269.755 194.241 268.835 196.385 268.835C198.277 268.835 199.286 269.295 200.736 270.872ZM222.872 278.889C224.07 279.678 225.584 281.321 226.215 282.503C228.422 286.446 227.665 287.892 215.746 301.757C209.25 309.38 204.205 314.637 203.196 314.966C199.097 316.412 192.916 312.469 190.961 307.277C189.952 304.517 190.015 304.255 191.088 302.086C192.223 299.852 211.773 281.189 215.62 278.626C218.142 276.984 220.35 277.049 222.872 278.889ZM247.467 288.615C250.558 290.586 252.449 293.149 252.513 295.449C252.513 297.026 250.999 299.326 245.134 306.62C241.098 311.68 235.233 319.04 232.08 323.049C228.989 326.991 226.152 330.474 225.773 330.737C224.449 331.657 220.728 331.263 218.079 329.883C215.62 328.634 210.89 324.034 210.89 322.851C210.89 322.589 212.656 320.289 214.863 317.726C217.007 315.163 223.692 307.277 229.683 300.18C240.152 287.761 240.719 287.235 242.927 287.235C244.251 287.235 246.269 287.892 247.467 288.615ZM261.026 308.263C262.161 308.986 263.612 310.694 264.18 311.943L265.252 314.309L257.873 325.743C253.837 332.051 249.927 337.637 249.107 338.163C248.035 338.885 247.215 338.951 245.323 338.425C242.359 337.571 237.882 333.431 238.134 331.854C238.386 330.08 256.864 306.949 257.999 306.949C258.567 306.949 259.891 307.54 261.026 308.263ZM276.54 327.451C280.135 330.014 282.153 331.854 282.027 332.511C281.712 334.22 277.865 336.06 274.396 336.06C271.621 336.125 266.954 334.417 265.189 332.84C264.999 332.643 270.297 323.377 270.675 323.377C270.801 323.377 273.387 325.217 276.54 327.451Z" fill="white" stroke="black" stroke-width="6" mask="url(#path-3-inside-1_226_19)"/>
<rect x="68.3635" y="155.151" width="378.388" height="197.14" stroke="black"/>
</g>
<defs>
<filter id="filter0_d_226_19" x="27.0303" y="0.00195312" width="457.858" height="520" filterUnits="userSpaceOnUse" color-interpolation-filters="sRGB">
<feFlood flood-opacity="0" result="BackgroundImageFix"/>
<feColorMatrix in="SourceAlpha" type="matrix" values="0 0 0 0 0 0 0 0 0 0 0 0 0 0 0 0 0 0 127 0" result="hardAlpha"/>
<feOffset dy="4"/>
<feGaussianBlur stdDeviation="2"/>
<feComposite in2="hardAlpha" operator="out"/>
<feColorMatrix type="matrix" values="0 0 0 0 0 0 0 0 0 0 0 0 0 0 0 0 0 0 0.25 0"/>
<feBlend mode="normal" in2="BackgroundImageFix" result="effect1_dropShadow_226_19"/>
<feBlend mode="normal" in="SourceGraphic" in2="effect1_dropShadow_226_19" result="shape"/>
</filter>
<linearGradient id="paint0_linear_226_19" x1="112.5" y1="78.5" x2="367.5" y2="370.5" gradientUnits="userSpaceOnUse">
<stop stop-color="#ADABB2"/>
<stop offset="0.989583" stop-color="white"/>
</linearGradient>
</defs>
</svg>
