<svg width="105" height="82" viewBox="0 0 105 82" fill="none" xmlns="http://www.w3.org/2000/svg">
<path d="M9.496 43.253C9.496 42.2551 9.6321 39.6089 9.6321 38.4748C9.6321 33.6209 7.9083 31.4284 3.3871 31.3074C1.2551 31.1713 0 29.9163 0 28.1169C0 26.3175 1.2551 25.0624 3.3871 24.9263C7.9083 24.7298 9.6321 22.5977 9.6321 17.6834C9.6321 16.5493 9.496 13.9031 9.496 12.9051C9.496 6.46357 12.2178 2.35065 22.5153 0.0976196C24.5717 -0.371132 26.1594 0.899034 26.1594 2.8194C26.1594 4.40711 25.1009 5.26901 24.2995 5.54119C17.858 7.52205 16.9356 9.57851 16.9356 14.0997C16.9356 15.4303 17.0717 17.6229 17.0717 19.014C17.0717 24.1854 14.5465 26.7106 10.1614 28.1169C14.607 29.5836 17.0717 32.0332 17.0717 37.2197C17.0717 38.6109 16.9356 40.8034 16.9356 42.1341C16.9356 46.6553 17.8731 48.7117 24.2995 50.6926C25.1009 50.9648 26.1594 51.8267 26.1594 53.4144C26.1594 55.3347 24.5717 56.6049 22.5153 56.1362C12.2178 53.868 9.496 49.7551 9.496 43.253Z" fill="#1D1F21"/>
<path d="M69.6634 12.9051C69.6634 13.9031 69.5273 16.5493 69.5273 17.6834C69.5273 22.5977 71.3267 24.7298 75.8328 24.9263C77.8892 25.0624 79.1594 26.3175 79.1594 28.1169C79.1594 29.9163 77.9044 31.1713 75.8328 31.3074C71.3116 31.4435 69.5273 33.6361 69.5273 38.4748C69.5273 39.6089 69.6634 42.2551 69.6634 43.253C69.6634 49.7551 66.9416 53.8831 56.6442 56.1362C54.5877 56.6049 53 55.3347 53 53.4144C53 51.8267 54.0585 50.9648 54.9204 50.6926C61.3015 48.6966 62.2238 46.6401 62.2238 42.1341C62.2238 40.8034 62.0878 38.6109 62.0878 37.2197C62.0878 32.0484 64.613 29.5231 68.9981 28.1169C64.5525 26.6501 62.0878 24.2005 62.0878 19.014C62.0878 17.6229 62.2238 15.4303 62.2238 14.0997C62.2238 9.57851 61.3015 7.52205 54.9204 5.54119C54.0585 5.26901 53 4.40711 53 2.8194C53 0.899034 54.5877 -0.371132 56.6442 0.0976196C66.9416 2.35065 69.6634 6.46357 69.6634 12.9051Z" fill="#1D1F21"/>
<path d="M2 68.1403C2 75.1111 7.3982 80.8268 14.2329 81.3258V81.3561H89.1274C97.7164 81.3561 104.671 74.4004 104.671 65.8117C104.671 57.7219 98.4874 51.0687 90.5794 50.3428C90.1254 36.2803 78.5884 25 64.4044 25C53.1242 25 43.4921 32.1371 39.8177 42.1472C37.731 41.0888 35.3721 40.4991 32.862 40.4991C24.6059 40.4991 17.8468 46.9406 17.3478 55.0757C16.6522 54.9548 15.9264 54.8943 15.2006 54.8943C7.9123 54.9094 2 60.8368 2 68.1403Z" fill="#E1D6FD"/>
<path d="M58.7021 72H54.8984V49.1963H51.0947V45.3926H58.7021V72ZM69.7051 69.1426C69.7051 69.5384 69.6247 69.9095 69.4639 70.2559C69.3154 70.6022 69.1113 70.9053 68.8516 71.165C68.5918 71.4248 68.2887 71.6289 67.9424 71.7773C67.596 71.9258 67.2311 72 66.8477 72C66.4518 72 66.0807 71.9258 65.7344 71.7773C65.4004 71.6289 65.1035 71.4248 64.8438 71.165C64.584 70.9053 64.3799 70.6022 64.2314 70.2559C64.083 69.9095 64.0088 69.5384 64.0088 69.1426C64.0088 68.7591 64.083 68.3942 64.2314 68.0479C64.3799 67.7015 64.584 67.3984 64.8438 67.1387C65.1035 66.8789 65.4004 66.6748 65.7344 66.5264C66.0807 66.3779 66.4518 66.3037 66.8477 66.3037C67.2311 66.3037 67.596 66.3779 67.9424 66.5264C68.2887 66.6748 68.5918 66.8789 68.8516 67.1387C69.1113 67.3984 69.3154 67.7015 69.4639 68.0479C69.6247 68.3942 69.7051 68.7591 69.7051 69.1426Z" fill="black"/>
</svg>
