<svg width="66" height="25" viewBox="0 0 66 25" fill="none" xmlns="http://www.w3.org/2000/svg">
<path d="M15.9611 20.2613C17.013 21.1466 17.013 22.525 15.9611 23.3601C15.4352 23.7545 14.7922 24 14.1492 24C13.4464 24 12.8033 23.8028 12.2774 23.3601L0.760171 13.5202C0.643038 13.4699 0.583277 13.4217 0.525906 13.3231C0.466144 13.2727 0.408764 13.2727 0.408764 13.2727C0.351393 13.1741 0.351385 13.0775 0.291623 12.9789C0.234252 12.9286 0.1745 12.8804 0.1745 12.8301C0.117128 12.7818 0.117123 12.6329 0.117123 12.6329C0.117123 12.5363 0.057358 12.486 0.057358 12.4377C0.057358 12.3391 0.057358 12.2405 0.057358 12.1902C0.057358 12.1419 0 12.0916 0 11.995C0 11.9447 0.057358 11.8461 0.057358 11.7978C0.057358 11.7475 0.057358 11.6006 0.057358 11.5503C0.057358 11.502 0.117123 11.4537 0.117123 11.4034C0.174495 11.3048 0.1745 11.2565 0.1745 11.1076C0.1745 11.0593 0.234265 11.0593 0.234265 11.0593C0.291636 10.9607 0.351398 10.8138 0.466141 10.7635C0.466141 10.7635 0.466144 10.7152 0.525906 10.7152C0.583277 10.6649 0.643038 10.518 0.760171 10.4677L12.2774 0.627819C13.2719 -0.209273 14.9667 -0.209273 15.9611 0.627819C17.013 1.4629 17.013 2.89161 15.9611 3.72669L6.25585 11.9447L15.9611 20.2613Z" fill="url(#paint0_linear_52_2)"/>
<path d="M49.306 3.91623C48.2579 3.02689 48.2636 1.64853 49.3188 0.817414C49.8463 0.424994 50.4903 0.181902 51.1334 0.184319C51.8362 0.18696 52.4784 0.386591 53.0025 0.831258L64.4791 10.7143C64.596 10.7651 64.6556 10.8136 64.7126 10.9124C64.7721 10.9629 64.8295 10.9631 64.8295 10.9631C64.8865 11.062 64.8861 11.1585 64.9454 11.2574C65.0026 11.3079 65.0621 11.3564 65.0619 11.4067C65.1191 11.4552 65.1185 11.6041 65.1185 11.6041C65.1181 11.7007 65.1777 11.7512 65.1775 11.7995C65.1771 11.8981 65.1767 11.9967 65.1764 12.047C65.1762 12.0953 65.2334 12.1458 65.233 12.2424C65.2328 12.2927 65.175 12.3911 65.1748 12.4394C65.1746 12.4897 65.174 12.6366 65.1738 12.6869C65.1736 12.7352 65.1136 12.7833 65.1134 12.8336C65.0557 12.932 65.0555 12.9803 65.0548 13.1292C65.0546 13.1774 64.9949 13.1772 64.9949 13.1772C64.9371 13.2756 64.8767 13.4223 64.7618 13.4722C64.7618 13.4722 64.7616 13.5205 64.7018 13.5202C64.6442 13.5703 64.5839 13.717 64.4665 13.7669L52.9088 23.5633C51.911 24.3967 50.2161 24.3903 49.2252 23.5495C48.1768 22.7105 48.1827 21.2818 49.2379 20.4507L58.977 12.2692L49.306 3.91623Z" fill="url(#paint1_linear_52_2)"/>
<path d="M23.203 21.3314L33.3343 1.16223C33.8039 0.171661 35.1597 -0.273081 36.3373 0.173685C37.4571 0.567891 37.9869 1.70603 37.5149 2.64404L27.3836 22.8638C27.032 23.6037 26.1482 23.9999 25.2644 23.9999C25.0284 23.9999 24.6744 23.9514 24.4384 23.8523C23.2608 23.4076 22.731 22.2694 23.203 21.3314Z" fill="#BEC0F1"/>
<defs>
<linearGradient id="paint0_linear_52_2" x1="8.375" y1="0" x2="8.375" y2="24" gradientUnits="userSpaceOnUse">
<stop stop-color="#D5D5D1"/>
<stop offset="1" stop-color="#9A77FC"/>
</linearGradient>
<linearGradient id="paint1_linear_52_2" x1="56.8087" y1="24.2058" x2="56.8989" y2="0.205987" gradientUnits="userSpaceOnUse">
<stop stop-color="#D5D5D1"/>
<stop offset="1" stop-color="#9A77FC"/>
</linearGradient>
</defs>
</svg>
