<svg width="100" height="100" viewBox="0 0 89 75" fill="none" xmlns="http://www.w3.org/2000/svg">
<path d="M44.9201 57.245C34.093 57.245 25.2838 48.2221 25.2838 37.1323C25.2838 26.0426 34.093 17.0197 44.9201 17.0197C55.7472 17.0197 64.5563 26.0426 64.5563 37.1323C64.5563 48.2221 55.7472 57.245 44.9201 57.245ZM44.9201 18.5146C34.9018 18.5146 26.7438 26.8632 26.7438 37.1323C26.7438 47.3937 34.8947 55.7496 44.9201 55.7496C54.9389 55.7496 63.0968 47.401 63.0968 37.1323C63.0968 26.8632 54.9389 18.5146 44.9201 18.5146ZM44.9201 49.6366C38.1862 49.6366 32.7049 44.0224 32.7049 37.1251C32.7049 30.2278 38.1862 24.6131 44.9201 24.6131C51.654 24.6131 57.1357 30.2278 57.1357 37.1251C57.1286 44.0224 51.654 49.6366 44.9201 49.6366ZM44.9201 26.1158C38.9949 26.1158 34.172 31.0562 34.172 37.1251C34.172 43.194 38.9949 48.1344 44.9201 48.1344C50.8457 48.1344 55.6686 43.194 55.6686 37.1251C55.6686 31.0562 50.8457 26.1158 44.9201 26.1158ZM44.9201 0C42.294 0 40.1544 2.19158 40.1544 4.88158C40.1544 7.57898 42.294 9.7632 44.9201 9.7632C47.5537 9.7632 49.6862 7.57171 49.6862 4.88158C49.6862 2.1989 47.5466 0 44.9201 0ZM44.9201 64.4869C42.294 64.4869 40.1544 66.6784 40.1544 69.3682C40.1544 72.0658 42.294 74.25 44.9201 74.25C47.5537 74.25 49.6862 72.0585 49.6862 69.3682C49.6862 66.6784 47.5466 64.4869 44.9201 64.4869ZM45.6503 9.19121H44.1903V25.3387H45.6503V9.19121ZM45.6503 48.926H44.1903V65.073H45.6503V48.926ZM88.9156 37.1251C88.9156 34.4348 86.7761 32.2433 84.15 32.2433C81.5163 32.2433 79.3838 34.4348 79.3838 37.1251C79.3838 39.8221 81.5234 42.0064 84.15 42.0064C86.7761 42.0136 88.9156 39.8221 88.9156 37.1251ZM10.4568 37.1251C10.4568 34.4348 8.31675 32.2433 5.69067 32.2433C3.05701 32.2433 0.92453 34.4348 0.92453 37.1251C0.92453 39.8221 3.06411 42.0064 5.69067 42.0064C8.31675 42.0136 10.4568 39.8221 10.4568 37.1251ZM79.9494 37.8798V36.3849H64.1843V37.8798H79.9494ZM25.6487 37.8798V36.3849H9.88417V37.8798H25.6487ZM75.8633 26.1376C73.2368 26.1376 71.0972 23.9461 71.0972 21.2563C71.0972 18.566 73.2368 16.3745 75.8633 16.3745C78.4894 16.3745 80.629 18.566 80.629 21.2563C80.629 23.9461 78.4894 26.1376 75.8633 26.1376ZM75.8633 17.8626C74.0384 17.8626 72.5572 19.3799 72.5572 21.249C72.5572 23.1177 74.0384 24.6349 75.8633 24.6349C77.6882 24.6349 79.1695 23.1177 79.1695 21.249C79.1695 19.3871 77.6882 17.8626 75.8633 17.8626ZM63.1967 22.0037H71.8269V20.5083H62.5956L53.5863 29.7295L54.6237 30.792L63.1967 22.0037ZM14.0204 26.1376C11.3938 26.1376 9.25427 23.9461 9.25427 21.2563C9.25427 18.566 11.3938 16.3745 14.0204 16.3745C16.6465 16.3745 18.7861 18.566 18.7861 21.2563C18.7936 23.9461 16.6536 26.1376 14.0204 26.1376ZM14.0204 17.8626C12.1955 17.8626 10.7143 19.3799 10.7143 21.249C10.7143 23.1177 12.1955 24.6349 14.0204 24.6349C15.8453 24.6349 17.3266 23.1177 17.3266 21.249C17.3266 19.3871 15.8453 17.8626 14.0204 17.8626ZM36.3045 29.7295L27.2947 20.5011H18.0634V21.9965H26.6937L35.2738 30.7847L36.3045 29.7295ZM14.0204 57.8902C11.3938 57.8902 9.25427 55.6982 9.25427 53.0084C9.25427 50.3109 11.3938 48.1266 14.0204 48.1266C16.6465 48.1266 18.7861 50.3186 18.7861 53.0084C18.7936 55.6982 16.6536 57.8902 14.0204 57.8902ZM14.0204 49.6148C12.1955 49.6148 10.7143 51.132 10.7143 53.0011C10.7143 54.8703 12.1955 56.3875 14.0204 56.3875C15.8453 56.3875 17.3266 54.8703 17.3266 53.0011C17.3266 51.1393 15.8453 49.6148 14.0204 49.6148ZM36.3045 44.5279L35.2667 43.4649L26.6866 52.2537H18.0563V53.7486H27.2876L36.3045 44.5279ZM75.8633 57.8902C73.2368 57.8902 71.0972 55.6982 71.0972 53.0084C71.0972 50.3109 73.2368 48.1266 75.8633 48.1266C78.4894 48.1266 80.629 50.3186 80.629 53.0084C80.629 55.6982 78.4894 57.8902 75.8633 57.8902ZM75.8633 49.6148C74.0384 49.6148 72.5572 51.132 72.5572 53.0011C72.5572 54.8703 74.0384 56.3875 75.8633 56.3875C77.6882 56.3875 79.1695 54.8703 79.1695 53.0011C79.1695 51.1393 77.6882 49.6148 75.8633 49.6148ZM71.8269 52.2537H63.1967L54.6166 43.4649L53.5792 44.5279L62.5886 53.7559H71.8198V52.2537H71.8269ZM34.093 11.2732C32.934 11.2732 31.9823 12.2407 31.9823 13.4356C31.9823 14.6227 32.9269 15.5975 34.093 15.5975C35.2525 15.5975 36.2042 14.6299 36.2042 13.4356C36.2042 12.248 35.2596 11.2732 34.093 11.2732ZM27.1158 4.63237C25.9568 4.63237 25.0051 5.59981 25.0051 6.79468C25.0051 7.98228 25.9497 8.95709 27.1158 8.95709C28.2753 8.95709 29.227 7.98956 29.227 6.79468C29.2199 5.59981 28.2753 4.63237 27.1158 4.63237ZM55.7401 11.2732C54.5811 11.2732 53.6294 12.2407 53.6294 13.4356C53.6294 14.6227 54.574 15.5975 55.7401 15.5975C56.8996 15.5975 57.8513 14.6299 57.8513 13.4356C57.8513 12.248 56.9067 11.2732 55.7401 11.2732ZM62.7244 4.63237C61.5654 4.63237 60.6137 5.59981 60.6137 6.79468C60.6137 7.98228 61.5583 8.95709 62.7244 8.95709C63.8838 8.95709 64.8355 7.98956 64.8355 6.79468C64.8284 5.59981 63.8838 4.63237 62.7244 4.63237ZM27.1158 65.3076C25.9568 65.3076 25.0051 66.2751 25.0051 67.47C25.0051 68.6571 25.9497 69.6324 27.1158 69.6324C28.2753 69.6324 29.227 68.6649 29.227 67.47C29.2199 66.2751 28.2753 65.3076 27.1158 65.3076ZM34.093 58.6594C32.934 58.6594 31.9823 59.627 31.9823 60.8219C31.9823 62.0095 32.9269 62.9843 34.093 62.9843C35.2525 62.9843 36.2042 62.0167 36.2042 60.8219C36.2042 59.6343 35.2596 58.6594 34.093 58.6594ZM62.7244 65.3076C61.5654 65.3076 60.6137 66.2751 60.6137 67.47C60.6137 68.6571 61.5583 69.6324 62.7244 69.6324C63.8838 69.6324 64.8355 68.6649 64.8355 67.47C64.8284 66.2751 63.8838 65.3076 62.7244 65.3076ZM55.7401 58.6594C54.5811 58.6594 53.6294 59.627 53.6294 60.8219C53.6294 62.0095 54.574 62.9843 55.7401 62.9843C56.8996 62.9843 57.8513 62.0167 57.8513 60.8219C57.8513 59.6343 56.9067 58.6594 55.7401 58.6594Z" fill="url(#paint0_linear_0_128)"/>
<path d="M45.4747 32.8723C45.2659 32.9442 45.08 33.1251 45.0065 33.3299C44.9836 33.3931 44.9767 33.9094 44.9698 35.6001L44.9652 37.7919L43.8383 38.8529C42.817 39.8159 42.7068 39.9292 42.6449 40.0556C42.5553 40.2342 42.5485 40.4695 42.6242 40.6613C42.6931 40.8356 42.8606 41.0012 43.0419 41.0796C43.2921 41.1863 43.5927 41.158 43.8245 41.0055C43.8773 40.9707 44.4901 40.3998 45.1855 39.7353C46.1816 38.7876 46.4662 38.5043 46.5167 38.4107L46.5833 38.2908V35.8398C46.5833 33.4758 46.581 33.3843 46.5396 33.2798C46.4846 33.1425 46.3193 32.9769 46.1701 32.9028C46.0118 32.8266 45.6583 32.8113 45.4747 32.8723Z" fill="white"/>
<path d="M45.2229 29.0119C44.7891 29.0925 44.5137 29.5326 44.5963 30.0054C44.6766 30.4607 44.8992 30.6067 45.5763 30.6437C46.3888 30.6917 46.9189 30.7875 47.5593 31.0076C49.4872 31.6699 51.0455 33.1798 51.6928 35.023C51.9911 35.8727 52.099 36.7747 52.0003 37.644C51.6354 40.9012 48.7413 43.3893 45.3101 43.3893C43.7058 43.3893 42.2048 42.8773 40.9723 41.9099C40.7061 41.7008 40.2333 41.2432 40.0244 40.9927C39.2395 40.0558 38.7461 38.8946 38.6198 37.6854L38.6061 37.5503L38.8195 37.5459C38.9366 37.5438 39.2716 37.5416 39.5654 37.5394C39.8569 37.5394 40.1025 37.5329 40.1117 37.5241C40.1208 37.5154 39.6894 36.8139 39.1523 35.9664C37.7706 33.7855 37.7959 33.8247 37.7798 33.8247C37.7729 33.8247 37.369 34.45 36.8847 35.2125C36.4005 35.9773 35.8749 36.8073 35.7142 37.0601C35.5536 37.3106 35.4273 37.5241 35.4342 37.5329C35.4388 37.5438 35.7624 37.5503 36.1526 37.5503H36.8618L36.8733 37.6418C36.8801 37.6941 36.8962 37.8422 36.91 37.9751C37.0041 38.851 37.3162 39.8423 37.7569 40.655C38.6038 42.2237 39.9372 43.4699 41.5805 44.2281C42.3379 44.5789 43.0769 44.8011 43.9789 44.9492C44.2612 44.9972 46.0376 45.019 46.3429 44.9797C48.895 44.6507 51.08 43.313 52.4433 41.2476C53.8547 39.1103 54.1095 36.4588 53.1295 34.0861C51.9751 31.2865 49.2072 29.3038 46.0789 29.0337C45.6956 28.9988 45.333 28.9901 45.2229 29.0119Z" fill="url(#paint1_linear_0_128)"/>
<defs>
<linearGradient id="paint0_linear_0_128" x1="0.918378" y1="37.128" x2="88.9189" y2="37.128" gradientUnits="userSpaceOnUse">
<stop offset="0.208333" stop-color="#9C7AFB"/>
<stop offset="0.796875" stop-color="#EEEEDF"/>
</linearGradient>
<linearGradient id="paint1_linear_0_128" x1="52.5751" y1="44.7495" x2="35.434" y2="44.7495" gradientUnits="userSpaceOnUse">
<stop offset="0.213542" stop-color="#9C7BFB"/>
<stop offset="0.692708" stop-color="#EEEEDF"/>
</linearGradient>
</defs>
</svg>
