<svg width="124" height="134" viewBox="0 0 124 134" fill="none" xmlns="http://www.w3.org/2000/svg">
<path fill-rule="evenodd" clip-rule="evenodd" d="M124 10.7717V74.9953C124 90.0611 115.6 104.115 102.078 111.662L62 134.001L21.9327 111.672C8.41057 104.115 0 90.0611 0 74.9953V10.8404L9.89719 7.80371C26.7489 2.62453 44.2726 0.000534558 62 0.000534558C75.5832 0.000534558 89.1969 1.57297 102.454 4.67849L102.617 4.59005L105.57 5.43522C108.849 6.27059 111.567 7.02732 114.103 7.80371L124 10.7717ZM90.1133 14.5749C64.8816 10.6242 37.1348 10.8503 13.3184 18.162L11.282 18.791V74.9953C11.282 86.189 17.5237 96.6358 27.5838 102.257L62 121.431L96.4365 102.247C106.486 96.6358 112.728 86.189 112.728 74.9953V74.327V18.791L99.3079 16.0491L90.9075 14.5749L90.1133 14.5749ZM99.3079 16.0491L110.508 18.3375L112.728 18.791V64.7156V61.7673L112.381 45.5517L112.4 44.0776L112.514 35.2523L112.728 18.791L110.508 18.3375L104.908 17.1933L99.3079 16.0491Z" fill="url(#paint0_linear_1_542)"/>
<g clip-path="url(#clip0_1_542)">
<path d="M23.6532 38.0399C22.9435 38.3322 22.1792 39.1922 22.0336 39.8113C21.6514 41.5483 17.1929 70.0461 17.1929 70.7684C17.1929 71.5251 17.2839 71.7659 17.757 72.2818C18.0846 72.6258 18.5942 73.0214 18.9035 73.1762C19.1947 73.3309 21.1419 73.6921 23.2165 74.0189C27.2565 74.6208 27.9844 74.6036 29.0217 73.9157C29.7132 73.4513 30.0408 72.6946 30.2956 71.0264C30.423 70.2524 30.5503 69.6161 30.6049 69.6161C30.6959 69.6161 33.0253 69.9257 33.8442 70.0461C34.372 70.132 34.3902 70.1492 34.4083 71.1124C34.4265 73.1074 36.0462 74.8444 38.4483 75.4463C39.1581 75.6355 39.2127 75.6871 39.2127 76.2547C39.2127 77.149 40.0134 78.5937 40.9597 79.4192C41.815 80.1587 43.3982 80.967 44.0352 80.967C44.8359 80.9842 45.1817 81.1906 45.491 81.8441C45.9278 82.7557 47.5474 84.1659 48.7849 84.6991C50.1134 85.2666 51.7876 85.4042 52.7521 85.0258L53.4618 84.7507L54.2079 85.4558C55.2634 86.4705 56.8649 87.1584 58.1933 87.1584C59.54 87.1584 60.2497 86.8661 61.105 85.9546L61.8148 85.2322L63.0158 85.7998C65.8184 87.1584 69.6582 86.3673 70.6773 84.2519C70.9684 83.65 71.0048 83.6328 72.0239 83.5984C73.9347 83.5296 76.0093 82.2741 76.5553 80.8638C76.7736 80.2963 76.7918 80.2791 77.8109 80.2791C80.5953 80.2791 83.4342 77.9917 83.4342 75.7731C83.4342 75.1368 83.4524 75.1196 84.1257 75.1196C86.4915 75.1196 89.2576 72.3506 89.3668 69.8741L89.4214 68.8422L90.7134 68.653C91.6415 68.5326 92.0419 68.5326 92.0783 68.653C92.1147 68.7562 92.2239 69.6849 92.3149 70.7168C92.515 72.6946 92.697 73.1246 93.6615 73.7953C93.9163 73.9845 94.4804 74.1909 94.899 74.2597C95.9545 74.4488 102.997 73.7265 103.743 73.3481C104.453 73.0042 105.236 72.1443 105.399 71.5423C105.454 71.3015 104.999 65.9012 104.38 59.555C102.215 37.5239 102.451 39.5877 101.942 38.9342C100.941 37.7131 99.8671 37.5755 94.717 38.1259C91.5141 38.4526 90.8772 38.6418 90.0947 39.5189C89.4578 40.2413 89.3668 40.6712 89.5123 42.4426L89.6215 43.9389L88.0383 44.0421C82.3423 44.4377 82.4151 44.4377 80.4315 43.7669C79.4306 43.4402 76.4825 42.3739 73.8801 41.4107C66.6555 38.745 67.5108 38.9342 63.5072 38.9342C59.4308 38.917 58.7575 39.0546 56.5919 40.396C55.8094 40.8776 54.6629 41.4107 54.0624 41.5827C52.097 42.1503 41.5056 44.988 40.9233 45.1084C40.4501 45.1944 37.7204 44.9536 35.1909 44.5752L34.5539 44.4893L34.8087 42.993C35.0817 41.2904 34.9543 40.5852 34.2082 39.8285C33.4438 39.0374 32.8251 38.8482 29.3129 38.315C25.6368 37.7475 24.4904 37.6959 23.6532 38.0399ZM28.7487 40.826C30.4594 41.0668 31.9334 41.3591 32.0608 41.4795C32.2246 41.6171 31.7332 45.0568 29.877 56.6657C28.5485 64.9209 27.3839 71.7487 27.2747 71.8519C27.0381 72.0755 20.2866 71.078 19.9954 70.7684C19.7224 70.4932 24.5268 40.568 24.8725 40.3616C24.9999 40.2756 25.2365 40.2413 25.3821 40.2928C25.5277 40.3272 27.0563 40.568 28.7487 40.826ZM99.5759 40.3444C99.7579 40.4648 100.468 47.0862 102.488 67.7759C102.67 69.7365 102.724 70.8888 102.615 70.992C102.415 71.1811 95.7179 71.8691 95.354 71.7487C95.0628 71.6283 95.1538 72.4194 93.5159 55.6338C92.6242 46.5359 92.1693 41.17 92.2785 41.0668C92.3695 40.9808 93.8799 40.7572 95.6269 40.5852C99.5941 40.1725 99.3212 40.1897 99.5759 40.3444ZM66.6919 41.5827C67.2378 41.6859 70.5317 42.8382 74.0439 44.1453C77.5562 45.4696 80.8864 46.6219 81.4324 46.7422C82.1967 46.8798 83.2886 46.8798 86.0183 46.725C88.0019 46.6047 89.6579 46.5531 89.6943 46.5875C89.7489 46.6562 91.6233 65.1445 91.6233 65.6777C91.6233 65.8668 91.1866 66.0044 89.7671 66.228L87.8927 66.5032L87.3468 66.0216C87.0556 65.7465 82.0511 61.9284 76.2277 57.5428C66.4735 50.1475 65.5818 49.5112 64.4353 49.15C63.7438 48.9436 63.0158 48.7717 62.7975 48.7717C62.5973 48.7717 61.2324 49.0984 59.7948 49.5112L57.1924 50.2507L56.3007 51.489C54.3171 54.2751 52.6247 55.4962 50.4045 55.7542C49.2944 55.8918 48.3117 55.479 48.0388 54.7395C47.8932 54.3267 48.1116 53.828 49.9496 50.3883L52.0424 46.4843L55.227 44.3861C58.4845 42.2363 59.2852 41.7891 60.2315 41.5655C61.0686 41.3763 65.6182 41.3935 66.6919 41.5827ZM49.4036 45.6243C49.4036 45.6587 48.4573 47.499 47.2926 49.7004C45.2726 53.5356 45.1817 53.742 45.2544 54.6019C45.3636 55.8058 46.1462 56.9925 47.2926 57.6632C48.0752 58.1104 48.3845 58.1792 49.7494 58.2308C53.0615 58.3683 55.2998 57.0957 58.1387 53.5012C58.9577 52.4521 58.9577 52.4521 60.7775 51.919C61.7966 51.6266 62.7065 51.3858 62.8157 51.3858C63.4526 51.3858 64.9084 52.2629 67.4198 54.1547C81.4506 64.7833 85.8363 68.1542 86.1639 68.5842C86.7826 69.3925 86.819 70.0289 86.2913 70.8716C85.6361 71.9207 84.5443 72.5914 83.5252 72.5914C82.6334 72.5914 82.961 72.7806 78.2113 69.5301C72.2787 65.4885 71.751 65.1445 71.3142 65.1445C70.3497 65.1445 69.64 66.3828 70.2041 67.1051C70.3315 67.2599 72.7155 68.9626 75.518 70.8716C81.214 74.7756 81.1958 74.7584 80.4679 76.1515C79.7945 77.4414 77.9565 78.0777 76.4461 77.5274C76.1913 77.4414 73.7164 75.8591 70.932 74.0189C68.1477 72.1787 65.6546 70.6308 65.3998 70.562C64.4535 70.3384 63.671 71.4391 64.0713 72.4366C64.1259 72.5914 66.4189 74.1909 69.1668 75.9967C71.9147 77.8025 74.1531 79.402 74.1531 79.5396C74.1531 80.0039 72.9884 80.9326 72.2605 81.0702C71.205 81.2422 70.2587 80.881 68.0203 79.4364C66.2369 78.3013 65.9639 78.0605 65.9639 77.6477C65.9639 76.5986 64.5991 74.9132 63.2342 74.2597C62.5609 73.9329 62.5063 73.8641 62.5063 73.1762C62.4881 71.6799 61.1232 69.9257 59.3216 69.1001C58.1569 68.567 56.4827 68.4466 55.5182 68.825C54.6629 69.1689 54.6811 69.1689 54.6811 68.825C54.6811 68.6874 54.2079 68.1026 53.6256 67.5523C52.097 66.1248 50.3499 65.6777 48.5847 66.2624C48.1116 66.4172 47.8386 66.4516 47.784 66.3312C47.5838 65.7465 46.4373 64.663 45.6002 64.2502C44.4173 63.6655 42.9797 63.6139 41.815 64.0954C41.3964 64.2846 40.068 65.1961 38.8305 66.1248C37.6112 67.0535 36.5193 67.7931 36.4101 67.7759C36.301 67.7759 35.0817 67.6211 33.6804 67.4491C32.079 67.2599 31.1327 67.0535 31.0781 66.9159C30.9871 66.7096 34.0626 47.2582 34.2082 47.1206C34.2446 47.0862 35.6822 47.2066 37.3928 47.4302C39.1399 47.6366 40.7777 47.7569 41.1599 47.6882C41.542 47.6366 43.4892 47.1206 45.491 46.5703C49.3672 45.504 49.4036 45.4868 49.4036 45.6243ZM44.8359 66.8815C45.2362 67.2427 45.4 67.5695 45.4 67.965C45.4 68.4638 45.1817 68.7046 43.4528 70.1492C42.3973 71.0436 41.3054 71.9379 41.0507 72.1615C40.1044 72.9698 39.795 73.1074 39.1035 72.987C38.2846 72.8322 36.9743 71.6455 37.0653 71.1296C37.1017 70.8888 38.1936 69.9429 40.0134 68.5498C42.5793 66.5892 42.9615 66.3484 43.5802 66.3484C44.1262 66.3484 44.4173 66.4688 44.8359 66.8815ZM51.2234 68.9798C51.5692 69.1861 52.006 69.6161 52.1879 69.9257C52.8249 70.9576 52.6065 71.3359 49.167 74.9648C47.2926 76.9598 45.8368 78.3357 45.5456 78.4217C44.3627 78.8 42.5793 77.7681 42.0152 76.4095C41.724 75.6871 41.7422 75.6183 42.0516 75.0508C42.3791 74.466 48.0206 69.5817 49.1307 68.911C49.8586 68.481 50.4955 68.4982 51.2234 68.9798ZM58.3207 71.5251C59.2124 72.0411 59.7584 72.7118 59.7766 73.3137C59.7766 73.7265 59.3398 74.3285 57.6474 76.2375C56.4827 77.5617 54.7903 79.488 53.8804 80.5371C52.9887 81.569 52.1697 82.4805 52.0606 82.5493C51.6784 82.7901 50.6047 82.6869 49.8404 82.3257C49.1307 81.9989 47.7658 80.795 47.7658 80.4855C47.7658 80.4167 48.2753 79.8147 48.9123 79.144C49.531 78.4733 51.46 76.4095 53.1888 74.552C56.2097 71.3015 56.3735 71.1639 57.0105 71.1639C57.3926 71.1639 57.975 71.3359 58.3207 71.5251ZM62.2333 76.6674C62.5609 76.8566 62.9794 77.3038 63.1432 77.6305L63.4526 78.2497L61.3234 81.2422C60.1587 82.8932 59.0304 84.3551 58.7939 84.4927C58.4845 84.6819 58.2479 84.6991 57.702 84.5615C56.8467 84.3379 55.5546 83.2544 55.6274 82.8417C55.7002 82.3773 61.0322 76.3235 61.3598 76.3235C61.5236 76.3235 61.9058 76.4782 62.2333 76.6674ZM66.7101 81.6894C67.7474 82.3601 68.3297 82.8417 68.2933 83.0136C68.2023 83.4608 67.0922 83.9423 66.0913 83.9423C65.2906 83.9595 63.9439 83.5124 63.4344 83.0996C63.3798 83.048 64.9084 80.6231 65.0176 80.6231C65.054 80.6231 65.8002 81.1046 66.7101 81.6894Z" fill="white"/>
</g>
<defs>
<linearGradient id="paint0_linear_1_542" x1="89.4311" y1="-81.5787" x2="195.908" y2="118.306" gradientUnits="userSpaceOnUse">
<stop stop-color="white"/>
<stop offset="0.5" stop-color="white"/>
<stop offset="1"/>
</linearGradient>
<clipPath id="clip0_1_542">
<rect width="109.189" height="51.5951" fill="white" transform="translate(9.50906 37.0107)"/>
</clipPath>
</defs>
</svg>
