<svg width="660" height="660" viewBox="0 0 660 660" fill="none" xmlns="http://www.w3.org/2000/svg">
<rect width="660" height="660" fill="black"/>
<path fill-rule="evenodd" clip-rule="evenodd" d="M567 80.8294V366.002C567 432.898 534.821 495.3 483.023 528.814L329.5 628.002L176.016 528.857C124.218 495.3 92 432.898 92 366.002V81.1348L129.913 67.6508C194.466 44.6537 261.593 33.0024 329.5 33.0024C381.532 33.0024 433.682 39.9845 484.466 53.7739L485.09 53.3812L496.401 57.134C508.961 60.8433 519.375 64.2034 529.087 67.6508L567 80.8294ZM437.192 97.7171C340.538 80.1748 234.25 81.1786 143.018 113.645L135.217 116.438V366.002C135.217 415.705 159.127 462.092 197.664 487.053L329.5 572.19L461.414 487.009C499.912 462.092 523.822 415.705 523.822 366.002V363.034V116.438L472.413 104.263L440.235 97.7171L437.192 97.7171ZM472.413 104.263L515.319 114.424L523.822 116.438V320.357V307.265L522.49 235.263L522.564 228.718L523.003 189.531L523.822 116.438L515.319 114.424L493.866 109.343L472.413 104.263Z" fill="url(#paint0_linear_456_1068)"/>
<g clip-path="url(#clip0_456_1068)">
<path d="M201.382 213.066C198.888 214.2 196.204 217.536 195.692 219.938C194.35 226.675 178.688 337.216 178.688 340.018C178.688 342.953 179.007 343.887 180.669 345.889C181.82 347.223 183.61 348.757 184.697 349.357C185.719 349.958 192.56 351.359 199.847 352.626C214.039 354.961 216.596 354.895 220.24 352.226C222.669 350.425 223.82 347.49 224.715 341.019C225.162 338.017 225.61 335.548 225.802 335.548C226.121 335.548 234.304 336.749 237.181 337.216C239.035 337.55 239.099 337.616 239.163 341.352C239.226 349.091 244.916 355.828 253.354 358.163C255.847 358.897 256.039 359.097 256.039 361.299C256.039 364.768 258.852 370.372 262.176 373.574C265.181 376.442 270.743 379.578 272.98 379.578C275.793 379.644 277.007 380.445 278.094 382.98C279.628 386.516 285.318 391.986 289.665 394.054C294.332 396.256 300.213 396.789 303.601 395.322L306.094 394.254L308.715 396.989C312.423 400.925 318.049 403.594 322.715 403.594C327.446 403.594 329.939 402.46 332.944 398.924L335.437 396.122L339.656 398.324C349.501 403.594 362.989 400.525 366.569 392.32C367.592 389.985 367.72 389.918 371.3 389.785C378.012 389.518 385.3 384.648 387.218 379.177C387.985 376.976 388.049 376.909 391.629 376.909C401.409 376.909 411.382 368.037 411.382 359.431C411.382 356.963 411.446 356.896 413.811 356.896C422.122 356.896 431.839 346.155 432.222 336.549L432.414 332.546L436.953 331.812C440.213 331.345 441.62 331.345 441.747 331.812C441.875 332.213 442.259 335.815 442.579 339.818C443.282 347.49 443.921 349.157 447.309 351.759C448.204 352.493 450.186 353.293 451.656 353.56C455.364 354.294 480.104 351.492 482.725 350.025C485.218 348.69 487.967 345.355 488.542 343.02C488.734 342.086 487.136 321.139 484.962 296.522C477.355 211.065 478.186 219.07 476.396 216.535C472.88 211.799 469.108 211.265 451.017 213.4C439.766 214.667 437.528 215.401 434.779 218.804C432.542 221.605 432.222 223.273 432.734 230.144L433.117 235.948L427.556 236.349C407.546 237.883 407.802 237.883 400.834 235.281C397.318 234.014 386.962 229.878 377.82 226.142C352.441 215.802 355.446 216.535 341.382 216.535C327.062 216.469 324.697 217.002 317.09 222.206C314.341 224.074 310.313 226.142 308.204 226.809C301.3 229.01 264.094 240.018 262.048 240.485C260.386 240.818 250.797 239.884 241.911 238.417L239.674 238.083L240.569 232.279C241.528 225.675 241.08 222.94 238.459 220.004C235.774 216.936 233.601 216.202 221.263 214.134C208.35 211.932 204.322 211.732 201.382 213.066ZM219.281 223.874C225.29 224.808 230.468 225.942 230.916 226.409C231.491 226.942 229.765 240.285 223.245 285.315C218.578 317.336 214.487 343.82 214.103 344.221C213.272 345.088 189.555 341.219 188.532 340.018C187.573 338.951 204.45 222.873 205.665 222.072C206.112 221.739 206.943 221.605 207.455 221.806C207.966 221.939 213.336 222.873 219.281 223.874ZM468.085 222.006C468.725 222.473 471.218 248.157 478.314 328.41C478.953 336.015 479.145 340.485 478.761 340.885C478.058 341.619 454.533 344.287 453.254 343.82C452.232 343.353 452.551 346.422 446.798 281.312C443.665 246.022 442.067 225.208 442.451 224.808C442.77 224.474 448.076 223.607 454.213 222.94C468.149 221.339 467.19 221.405 468.085 222.006ZM352.569 226.809C354.487 227.209 366.058 231.679 378.396 236.749C390.734 241.886 402.432 246.355 404.35 246.822C407.035 247.356 410.871 247.356 420.46 246.756C427.428 246.289 433.245 246.088 433.373 246.222C433.565 246.489 440.149 318.203 440.149 320.271C440.149 321.005 438.615 321.539 433.629 322.406L427.044 323.474L425.126 321.606C424.104 320.538 406.524 305.728 386.067 288.717C351.802 260.031 348.67 257.563 344.642 256.162C342.213 255.361 339.656 254.694 338.889 254.694C338.186 254.694 333.391 255.962 328.341 257.563L319.199 260.431L316.067 265.235C309.099 276.042 303.154 280.778 295.354 281.779C291.455 282.313 288.003 280.712 287.044 277.843C286.533 276.242 287.3 274.307 293.756 260.965L301.108 245.822L312.295 237.683C323.738 229.344 326.551 227.609 329.875 226.742C332.816 226.008 348.797 226.075 352.569 226.809ZM291.838 242.486C291.838 242.619 288.514 249.758 284.423 258.297C277.327 273.173 277.007 273.974 277.263 277.309C277.647 281.979 280.396 286.582 284.423 289.184C287.172 290.918 288.259 291.185 293.053 291.385C304.688 291.919 312.551 286.982 322.523 273.04C325.4 268.97 325.4 268.97 331.793 266.902C335.373 265.768 338.569 264.834 338.953 264.834C341.19 264.834 346.304 268.237 355.126 275.575C404.414 316.802 419.82 329.878 420.971 331.546C423.145 334.681 423.273 337.149 421.419 340.418C419.117 344.488 415.282 347.089 411.702 347.089C408.569 347.089 409.72 347.823 393.035 335.215C372.195 319.538 370.341 318.203 368.807 318.203C365.419 318.203 362.925 323.007 364.907 325.808C365.355 326.409 373.729 333.013 383.574 340.418C403.583 355.562 403.519 355.495 400.962 360.899C398.597 365.902 392.14 368.37 386.834 366.235C385.939 365.902 377.245 359.764 367.464 352.626C357.683 345.488 348.925 339.484 348.03 339.217C344.706 338.35 341.957 342.62 343.364 346.489C343.555 347.089 351.61 353.293 361.263 360.298C370.916 367.303 378.779 373.507 378.779 374.041C378.779 375.842 374.688 379.444 372.131 379.978C368.423 380.645 365.099 379.244 357.236 373.64C350.971 369.237 350.012 368.303 350.012 366.702C350.012 362.633 345.218 356.095 340.423 353.56C338.058 352.293 337.866 352.026 337.866 349.357C337.802 343.554 333.007 336.749 326.679 333.547C322.587 331.479 316.706 331.012 313.318 332.48C310.313 333.814 310.377 333.814 310.377 332.48C310.377 331.946 308.715 329.678 306.67 327.543C301.3 322.006 295.163 320.271 288.962 322.54C287.3 323.14 286.341 323.273 286.149 322.806C285.446 320.538 281.418 316.335 278.478 314.734C274.322 312.466 269.272 312.266 265.181 314.134C263.711 314.868 259.044 318.403 254.697 322.006C250.414 325.608 246.578 328.477 246.195 328.41C245.811 328.41 241.528 327.81 236.605 327.143C230.98 326.409 227.656 325.608 227.464 325.075C227.144 324.274 237.948 248.824 238.459 248.29C238.587 248.157 243.637 248.623 249.647 249.491C255.784 250.291 261.537 250.758 262.879 250.491C264.222 250.291 271.062 248.29 278.094 246.155C291.711 242.019 291.838 241.952 291.838 242.486ZM275.793 324.941C277.199 326.342 277.774 327.61 277.774 329.144C277.774 331.079 277.007 332.013 270.934 337.616C267.227 341.085 263.391 344.554 262.496 345.422C259.172 348.557 258.085 349.091 255.656 348.624C252.779 348.023 248.176 343.42 248.496 341.419C248.624 340.485 252.459 336.816 258.852 331.412C267.866 323.807 269.208 322.873 271.382 322.873C273.3 322.873 274.322 323.34 275.793 324.941ZM298.231 333.08C299.446 333.88 300.98 335.548 301.619 336.749C303.857 340.752 303.09 342.219 291.007 356.295C284.423 364.034 279.309 369.371 278.286 369.704C274.131 371.172 267.866 367.169 265.884 361.899C264.861 359.097 264.925 358.83 266.012 356.629C267.163 354.361 286.98 335.415 290.88 332.813C293.437 331.145 295.674 331.212 298.231 333.08ZM323.163 342.953C326.295 344.955 328.213 347.556 328.277 349.891C328.277 351.492 326.743 353.827 320.797 361.232C316.706 366.369 310.761 373.841 307.565 377.91C304.432 381.913 301.555 385.448 301.172 385.715C299.829 386.649 296.058 386.249 293.373 384.848C290.88 383.58 286.085 378.911 286.085 377.71C286.085 377.443 287.875 375.108 290.112 372.506C292.286 369.905 299.062 361.899 305.135 354.694C315.747 342.086 316.323 341.552 318.56 341.552C319.902 341.552 321.948 342.219 323.163 342.953ZM336.907 362.9C338.058 363.634 339.528 365.368 340.103 366.636L341.19 369.037L333.711 380.645C329.619 387.049 325.656 392.72 324.825 393.254C323.738 393.987 322.907 394.054 320.989 393.52C317.985 392.653 313.446 388.45 313.702 386.849C313.957 385.048 332.688 361.566 333.839 361.566C334.414 361.566 335.756 362.166 336.907 362.9ZM352.633 382.38C356.277 384.981 358.323 386.849 358.195 387.516C357.875 389.251 353.976 391.119 350.46 391.119C347.647 391.185 342.916 389.451 341.126 387.85C340.934 387.65 346.304 378.243 346.688 378.243C346.816 378.243 349.437 380.111 352.633 382.38Z" fill="url(#paint1_linear_456_1068)"/>
</g>
<defs>
<linearGradient id="paint0_linear_456_1068" x1="434.579" y1="-329.234" x2="943.925" y2="495.66" gradientUnits="userSpaceOnUse">
<stop stop-color="white"/>
<stop offset="0.5" stop-color="white"/>
<stop offset="1"/>
</linearGradient>
<linearGradient id="paint1_linear_456_1068" x1="448.14" y1="212.132" x2="179.325" y2="209.988" gradientUnits="userSpaceOnUse">
<stop offset="0.333333" stop-color="#D5D5D1"/>
<stop offset="0.567708" stop-color="#956FFF"/>
</linearGradient>
<clipPath id="clip0_456_1068">
<rect width="383.562" height="200.134" fill="white" transform="translate(150.188 203.048)"/>
</clipPath>
</defs>
</svg>
