<svg width="103" height="57" viewBox="0 0 103 57" fill="none" xmlns="http://www.w3.org/2000/svg">
<path d="M0 43.1403C0 50.1111 5.3982 55.8268 12.2329 56.3258V56.3561H87.1274C95.7164 56.3561 102.671 49.4004 102.671 40.8117C102.671 32.7219 96.4874 26.0687 88.5794 25.3428C88.1254 11.2803 76.5884 0 62.4044 0C51.1242 0 41.4921 7.13713 37.8177 17.1472C35.731 16.0888 33.3721 15.4991 30.862 15.4991C22.6059 15.4991 15.8468 21.9406 15.3478 30.0757C14.6522 29.9548 13.9264 29.8943 13.2006 29.8943C5.9123 29.9094 0 35.8368 0 43.1403Z" fill="#E1D6FD"/>
<path d="M49.973 41.303C50.205 39.157 51.713 37.359 55.715 36.46C60.036 35.474 63.081 34.082 63.081 29.877C63.081 25.237 58.586 23.932 54.149 23.932C51.51 23.932 49.335 24.251 47.479 24.744L48.146 27.412C49.451 27.122 52.061 26.658 54.149 26.658C57.658 26.658 60.152 27.441 60.152 29.761C60.152 32.313 58.238 33.038 54.874 33.792C50.814 34.72 47.566 36.663 47.102 40.723L46.725 44H62.907L63.197 41.303H49.973ZM69.0308 42.289C69.0308 41.274 68.1898 40.462 67.2038 40.462C66.1888 40.462 65.3768 41.274 65.3768 42.289C65.3768 43.275 66.1888 44.116 67.2038 44.116C68.1898 44.116 69.0308 43.275 69.0308 42.289Z" fill="black"/>
</svg>
