<svg width="60" height="60" viewBox="0 0 79 66" fill="none" xmlns="http://www.w3.org/2000/svg">
<path d="M39.6949 0.367348C27.9902 2.24757 19.3672 10.5456 18.5968 20.6989C18.1523 26.8159 20.7006 32.6571 26.0048 37.5206C27.0419 38.4733 27.3382 38.5986 28.405 38.5986C29.1162 38.5986 30.3904 38.4231 31.2497 38.1975L32.8498 37.7964L31.9905 37.2699C30.3904 36.3674 26.6863 32.958 25.6492 31.5039C23.8417 28.9217 22.8638 26.0638 22.7156 22.8799C22.5378 19.3451 23.1305 16.9886 24.8788 13.905C27.1605 9.94397 30.3904 7.21137 35.2204 5.23087C38.5688 3.85204 41.1765 3.42585 45.4139 3.5512C51.1921 3.75176 55.3703 5.23087 59.6077 8.61528C64.9118 12.827 67.3713 18.9189 66.2156 24.8855C66.0675 25.7128 65.86 26.6153 65.7415 26.8911C65.623 27.217 66.1564 26.866 67.0453 26.0387C67.9047 25.2616 68.9714 24.4844 69.4752 24.3089C70.6901 23.8827 70.8086 23.2309 70.4234 20.0471C69.89 15.6849 68.2603 12.125 65.2674 8.71556C59.5484 2.17237 49.2957 -1.1619 39.6949 0.367348Z" fill="url(#paint0_linear_1_113)"/>
<path d="M39.6052 6.00672C36.079 6.80895 33.4714 8.0875 30.7749 10.3939C26.9523 13.6279 25.0559 17.4886 25.0262 22.0012C25.0262 27.0151 27.9894 32.1544 32.5232 35.0124C35.4567 36.8424 35.1308 36.8174 39.5756 35.3383C42.8055 34.2603 43.8426 34.0346 45.3242 34.0346C47.6059 34.0346 49.5616 34.7867 51.0433 36.2157L52.1396 37.2937L53.9176 36.5165C56.2585 35.4636 59.8736 32.5305 61.2663 30.5249C61.8886 29.6725 62.7183 28.043 63.1628 26.9399C63.8147 25.2352 63.9332 24.4831 63.9332 21.926C63.9629 19.3187 63.8443 18.6669 63.1628 17.0123C62.0664 14.3048 60.4959 12.1488 58.2142 10.2686C55.9029 8.36327 53.7694 7.23513 50.7469 6.33263C47.7541 5.43012 42.7463 5.2797 39.6052 6.00672ZM46.3614 13.0012V14.2045L47.6356 14.3549C48.3171 14.4051 49.2357 14.5806 49.6802 14.731L50.4506 15.0067L50.0061 16.4608C49.7691 17.263 49.532 17.9399 49.5024 17.99C49.4431 18.0151 48.9394 17.8647 48.3467 17.6641C47.0725 17.2129 44.2575 17.1627 43.7537 17.5889C43.2796 17.99 43.3093 19.1683 43.7834 19.4942C43.9908 19.6446 45.2057 20.0959 46.4799 20.5221C47.7541 20.9483 49.0875 21.4747 49.4135 21.7254C50.9247 22.8786 51.547 25.5862 50.6284 27.1906C50.1247 28.0931 48.4653 29.1962 47.1911 29.4469C46.4206 29.6224 46.3614 29.7227 46.3614 30.9761V32.3299H44.5834H42.8055V31.1015V29.8981L41.1165 29.5973C38.5385 29.1711 38.5089 29.121 39.0719 27.4664C39.3386 26.6892 39.6645 26.0625 39.8127 26.0625C39.9608 26.0625 40.6424 26.238 41.3239 26.4385C43.9315 27.2157 46.0651 26.614 45.6502 25.2101C45.502 24.6836 45.0872 24.3828 43.7537 23.9065C40.1683 22.6029 39.4275 22.2017 38.7163 21.1739C38.1533 20.3466 38.0644 19.8703 38.1236 18.4914C38.2125 16.9622 38.3311 16.7115 39.2497 15.9093C39.783 15.4329 40.8202 14.8563 41.5313 14.6307C42.8055 14.2045 42.8055 14.2045 42.8055 13.0012V11.7727H44.5834H46.3614V13.0012Z" fill="url(#paint1_linear_1_113)"/>
<path d="M70.9268 25.9628C70.1564 26.2385 68.3488 27.8179 64.4078 31.7539C61.4149 34.7372 57.9183 38.1968 56.6441 39.4503C55.3699 40.7037 53.8883 42.4586 53.355 43.3611C52.792 44.2636 52.1104 45.2414 51.8141 45.5422C51.2214 46.1439 31.6939 52.9879 31.2494 52.7623C31.1308 52.6871 30.8642 52.2859 30.6864 51.8848C30.4197 51.2079 30.4493 51.0826 31.042 50.882C31.3975 50.7316 35.7535 49.2274 40.7317 47.5227C49.7102 44.4391 49.7695 44.4141 50.5992 43.3361C51.0437 42.7344 51.3992 42.0074 51.3992 41.7316C51.3992 39.9517 49.2065 37.0937 47.3396 36.4419C45.4728 35.765 44.3172 35.9906 37.561 38.272C31.8717 40.1773 30.8345 40.453 28.8195 40.5533C26.5379 40.6536 26.4786 40.6536 23.7524 39.5004C20.3447 38.0464 17.6779 37.6202 14.8924 38.0464C13.8553 38.1968 10.7736 39.0993 8.01777 40.0269L3.03957 41.7065L2.3284 43.0603C-0.219965 47.9238 -0.664447 51.5088 0.935689 54.3918C2.12098 56.5979 9.55865 66.0743 10.0031 65.9991C10.2106 65.9489 12.6997 65.1216 15.5443 64.1439L20.73 62.364L34.9534 61.7874C49.4732 61.1857 50.2436 61.1105 52.2882 60.0074C53.9476 59.13 54.8662 58.1773 66.6894 45.2414C74.4234 36.7678 78.0386 32.6313 78.3349 31.8541C79.698 28.3444 74.8975 24.5087 70.9268 25.9628Z" fill="url(#paint2_linear_1_113)"/>
<defs>
<linearGradient id="paint0_linear_1_113" x1="58.7169" y1="28.6565" x2="42.695" y2="3.78695" gradientUnits="userSpaceOnUse">
<stop stop-color="#D5D5D1"/>
<stop offset="1" stop-color="#97989E"/>
</linearGradient>
<linearGradient id="paint1_linear_1_113" x1="55.0434" y1="29.1161" x2="41.3854" y2="9.85567" gradientUnits="userSpaceOnUse">
<stop stop-color="#D5D5D1"/>
<stop offset="1" stop-color="#97989E"/>
</linearGradient>
<linearGradient id="paint2_linear_1_113" x1="60.6122" y1="55.6055" x2="46.9185" y2="24.927" gradientUnits="userSpaceOnUse">
<stop stop-color="#D5D5D1"/>
<stop offset="1" stop-color="#97989E"/>
</linearGradient>
</defs>
</svg>
