<svg width="59" height="66" viewBox="0 0 59 66" fill="none" xmlns="http://www.w3.org/2000/svg">
<path fill-rule="evenodd" clip-rule="evenodd" d="M58.177 5.30544V36.938C58.177 44.3584 54.2485 51.2804 47.9248 54.9978L29.1823 66.0003L10.4445 55.0027C4.12077 51.2804 0.1875 44.3584 0.1875 36.938V5.33933L4.816 3.84362C12.6968 1.29268 20.8919 0.00026329 29.1823 0.00026329C35.5345 0.00026329 41.9011 0.774747 48.101 2.30433L48.1772 2.26077L49.5581 2.67705C51.0914 3.0885 52.3628 3.46122 53.5485 3.84362L58.177 5.30544ZM42.3297 7.1787C30.5299 5.23283 17.5539 5.34418 6.41597 8.94549L5.4636 9.25528V36.938C5.4636 42.4513 8.3826 47.5967 13.0873 50.3655L29.1823 59.8093L45.2868 50.3607C49.9867 47.5967 52.9057 42.4513 52.9057 36.938V36.6088V9.25528L46.6296 7.90477L42.7011 7.1787L42.3297 7.1787ZM46.6296 7.90477L51.8676 9.0319L52.9057 9.25528V31.8749V30.4227L52.7431 22.4359L52.7521 21.7099L52.8057 17.3631L52.9057 9.25528L51.8676 9.0319L49.2486 8.46834L46.6296 7.90477Z" fill="url(#paint0_linear_1_170)"/>
<path d="M12.601 20.7116C12.284 20.8556 11.9426 21.2791 11.8775 21.5841C11.7068 22.4396 9.71509 36.4758 9.71509 36.8316C9.71509 37.2043 9.75574 37.3229 9.9671 37.577C10.1134 37.7464 10.3411 37.9413 10.4793 38.0175C10.6093 38.0937 11.4792 38.2716 12.4059 38.4326C14.2107 38.729 14.5358 38.7206 14.9992 38.3817C15.3081 38.153 15.4545 37.7803 15.5683 36.9586C15.6252 36.5775 15.6821 36.264 15.7065 36.264C15.7471 36.264 16.7877 36.4165 17.1535 36.4758C17.3893 36.5182 17.3974 36.5266 17.4055 37.001C17.4137 37.9836 18.1372 38.8392 19.2103 39.1357C19.5273 39.2288 19.5517 39.2542 19.5517 39.5338C19.5517 39.9743 19.9094 40.6858 20.3321 41.0924C20.7142 41.4567 21.4215 41.8548 21.706 41.8548C22.0637 41.8633 22.2182 41.9649 22.3564 42.2868C22.5515 42.7358 23.275 43.4304 23.8278 43.693C24.4212 43.9725 25.1691 44.0403 25.6 43.8539L25.917 43.7184L26.2504 44.0657C26.7219 44.5655 27.4373 44.9043 28.0307 44.9043C28.6323 44.9043 28.9493 44.7603 29.3314 44.3113L29.6485 43.9556L30.185 44.2351C31.4369 44.9043 33.1522 44.5146 33.6075 43.4727C33.7376 43.1762 33.7538 43.1678 34.2091 43.1508C35.0627 43.1169 35.9894 42.4986 36.2333 41.804C36.3309 41.5244 36.339 41.516 36.7942 41.516C38.038 41.516 39.3062 40.3893 39.3062 39.2966C39.3062 38.9832 39.3144 38.9747 39.6151 38.9747C40.672 38.9747 41.9076 37.6109 41.9564 36.3911L41.9808 35.8828L42.558 35.7897C42.9726 35.7304 43.1514 35.7304 43.1677 35.7897C43.184 35.8405 43.2327 36.2979 43.2734 36.8062C43.3628 37.7803 43.4441 37.9921 43.875 38.3224C43.9888 38.4156 44.2408 38.5173 44.4278 38.5512C44.8993 38.6443 48.0454 38.2886 48.3787 38.1022C48.6957 37.9328 49.0453 37.5092 49.1185 37.2128C49.1428 37.0942 48.9396 34.4343 48.6632 31.3086C47.6958 20.4574 47.8015 21.4739 47.5739 21.152C47.1267 20.5506 46.6471 20.4828 44.3465 20.7539C42.9157 20.9149 42.6312 21.008 42.2816 21.4401C41.9971 21.7958 41.9564 22.0076 42.0215 22.8801L42.0702 23.6171L41.363 23.6679C38.8185 23.8627 38.851 23.8627 37.9649 23.5324C37.5177 23.3714 36.2008 22.8462 35.0383 22.3718C31.8109 21.0589 32.193 21.152 30.4045 21.152C28.5835 21.1436 28.2827 21.2113 27.3153 21.8721C26.9657 22.1092 26.4536 22.3718 26.1853 22.4566C25.3073 22.7361 20.576 24.1338 20.3159 24.1931C20.1045 24.2354 18.8851 24.1168 17.7551 23.9305L17.4706 23.8881L17.5844 23.1512C17.7063 22.3125 17.6494 21.9652 17.3161 21.5925C16.9747 21.2029 16.6983 21.1097 15.1293 20.8471C13.4871 20.5676 12.975 20.5421 12.601 20.7116ZM14.8773 22.0838C15.6414 22.2024 16.2999 22.3464 16.3568 22.4057C16.43 22.4735 16.2105 24.1677 15.3813 29.8855C14.7879 33.9515 14.2676 37.3144 14.2188 37.3652C14.1131 37.4754 11.0971 36.9841 10.967 36.8316C10.8451 36.696 12.9912 21.9568 13.1457 21.8551C13.2026 21.8128 13.3083 21.7958 13.3733 21.8212C13.4384 21.8382 14.1212 21.9568 14.8773 22.0838ZM46.517 21.8467C46.5983 21.9059 46.9154 25.1672 47.8177 35.3577C47.899 36.3233 47.9234 36.8909 47.8746 36.9417C47.7852 37.0349 44.7936 37.3737 44.631 37.3144C44.5009 37.2551 44.5416 37.6448 43.8099 29.3772C43.4116 24.8962 43.2084 22.2533 43.2571 22.2024C43.2978 22.1601 43.9725 22.05 44.7529 21.9652C46.5252 21.7619 46.4032 21.7704 46.517 21.8467ZM31.8271 22.4566C32.071 22.5074 33.5425 23.0749 35.1114 23.7187C36.6804 24.371 38.1681 24.9385 38.412 24.9978C38.7534 25.0656 39.2412 25.0656 40.4606 24.9893C41.3467 24.93 42.0865 24.9046 42.1027 24.9216C42.1271 24.9555 42.9645 34.0616 42.9645 34.3242C42.9645 34.4174 42.7694 34.4852 42.1353 34.5953L41.2979 34.7308L41.0541 34.4936C40.924 34.3581 38.6884 32.4776 36.087 30.3175C31.7296 26.675 31.3312 26.3616 30.8191 26.1837C30.5102 26.0821 30.185 25.9974 30.0874 25.9974C29.998 25.9974 29.3883 26.1583 28.7461 26.3616L27.5836 26.7259L27.1852 27.3358C26.2991 28.708 25.5431 29.3095 24.5513 29.4365C24.0554 29.5043 23.6164 29.301 23.4945 28.9368C23.4294 28.7335 23.527 28.4878 24.3481 26.7936L25.283 24.8707L26.7056 23.8373C28.1608 22.7784 28.5185 22.5582 28.9412 22.4481C29.3152 22.3549 31.3475 22.3634 31.8271 22.4566ZM24.1042 24.4472C24.1042 24.4641 23.6815 25.3705 23.1612 26.4548C22.2588 28.3438 22.2182 28.4454 22.2507 28.869C22.2994 29.4619 22.649 30.0464 23.1612 30.3768C23.5107 30.597 23.6489 30.6309 24.2586 30.6563C25.7382 30.7241 26.7381 30.0973 28.0063 28.3269C28.3721 27.8101 28.3721 27.8101 29.1851 27.5475C29.6403 27.4035 30.0468 27.2849 30.0956 27.2849C30.3801 27.2849 31.0305 27.7169 32.1523 28.6487C38.4201 33.8837 40.3793 35.544 40.5256 35.7558C40.802 36.1539 40.8183 36.4673 40.5825 36.8824C40.2899 37.3991 39.8021 37.7295 39.3469 37.7295C38.9485 37.7295 39.0949 37.8227 36.9731 36.2217C34.3229 34.231 34.0871 34.0616 33.892 34.0616C33.4612 34.0616 33.1441 34.6715 33.3961 35.0273C33.453 35.1035 34.518 35.9421 35.7699 36.8824C38.3144 38.8053 38.3063 38.7968 37.9811 39.483C37.6803 40.1183 36.8593 40.4317 36.1845 40.1606C36.0707 40.1183 34.9651 39.339 33.7213 38.4326C32.4775 37.5262 31.3638 36.7638 31.25 36.7299C30.8272 36.6198 30.4777 37.1619 30.6565 37.6533C30.6809 37.7295 31.7052 38.5173 32.9327 39.4067C34.1603 40.2962 35.1602 41.0839 35.1602 41.1517C35.1602 41.3804 34.6399 41.8379 34.3148 41.9056C33.8432 41.9903 33.4205 41.8124 32.4206 41.1009C31.6239 40.5418 31.502 40.4232 31.502 40.2199C31.502 39.7032 30.8923 38.8731 30.2826 38.5512C29.9818 38.3902 29.9574 38.3563 29.9574 38.0175C29.9492 37.2805 29.3395 36.4165 28.5347 36.0099C28.0144 35.7473 27.2665 35.688 26.8357 35.8744C26.4536 36.0438 26.4617 36.0438 26.4617 35.8744C26.4617 35.8066 26.2504 35.5186 25.9902 35.2475C25.3073 34.5445 24.5269 34.3242 23.7384 34.6122C23.527 34.6885 23.4051 34.7054 23.3807 34.6461C23.2912 34.3581 22.7791 33.8244 22.4051 33.6211C21.8767 33.3331 21.2345 33.3077 20.7142 33.5449C20.5272 33.6381 19.9338 34.087 19.381 34.5445C18.8363 35.0019 18.3485 35.3661 18.2998 35.3577C18.251 35.3577 17.7063 35.2814 17.0804 35.1967C16.365 35.1035 15.9422 35.0019 15.9178 34.9341C15.8772 34.8325 17.2511 25.2519 17.3161 25.1842C17.3324 25.1672 17.9746 25.2265 18.7388 25.3366C19.5192 25.4383 20.2508 25.4976 20.4216 25.4637C20.5923 25.4383 21.4621 25.1842 22.3564 24.9131C24.0879 24.3879 24.1042 24.3794 24.1042 24.4472ZM22.0637 34.9172C22.2425 35.0951 22.3157 35.256 22.3157 35.4508C22.3157 35.6965 22.2182 35.8151 21.4459 36.5266C20.9744 36.9671 20.4866 37.4076 20.3728 37.5177C19.95 37.9158 19.8118 37.9836 19.5029 37.9243C19.1371 37.8481 18.5518 37.2636 18.5924 37.0095C18.6087 36.8909 19.0965 36.425 19.9094 35.7388C21.0556 34.7732 21.2264 34.6546 21.5028 34.6546C21.7466 34.6546 21.8767 34.7139 22.0637 34.9172ZM24.9171 35.9506C25.0716 36.0523 25.2667 36.264 25.348 36.4165C25.6325 36.9248 25.535 37.1111 23.9985 38.8985C23.1612 39.8811 22.5108 40.5588 22.3807 40.6011C21.8523 40.7875 21.0556 40.2792 20.8036 39.61C20.6736 39.2542 20.6817 39.2204 20.8199 38.9408C20.9662 38.6528 23.4863 36.2471 23.9822 35.9167C24.3074 35.705 24.5919 35.7134 24.9171 35.9506ZM28.0876 37.2043C28.4859 37.4584 28.7298 37.7888 28.738 38.0853C28.738 38.2886 28.5429 38.585 27.7868 39.5253C27.2665 40.1776 26.5105 41.1263 26.104 41.643C25.7057 42.1513 25.3399 42.6002 25.2911 42.6341C25.1204 42.7527 24.6407 42.7019 24.2993 42.524C23.9822 42.363 23.3725 41.7701 23.3725 41.6176C23.3725 41.5837 23.6002 41.2872 23.8847 40.9569C24.1611 40.6265 25.0228 39.61 25.7951 38.6952C27.1446 37.0942 27.2178 37.0264 27.5023 37.0264C27.673 37.0264 27.9331 37.1111 28.0876 37.2043ZM29.8354 39.7371C29.9818 39.8303 30.1687 40.0505 30.2419 40.2114L30.3801 40.5164L29.429 41.9903C28.9087 42.8035 28.4047 43.5235 28.299 43.5913C28.1608 43.6845 28.0551 43.693 27.8112 43.6252C27.4291 43.5151 26.8519 42.9814 26.8844 42.7781C26.917 42.5494 29.2989 39.5677 29.4452 39.5677C29.5184 39.5677 29.6891 39.6439 29.8354 39.7371ZM31.8353 42.2106C32.2987 42.5409 32.5588 42.7781 32.5425 42.8628C32.5019 43.0831 32.006 43.3202 31.5589 43.3202C31.2012 43.3287 30.5996 43.1085 30.372 42.9052C30.3476 42.8798 31.0305 41.6854 31.0792 41.6854C31.0955 41.6854 31.4288 41.9226 31.8353 42.2106Z" fill="url(#paint1_linear_1_170)"/>
<defs>
<linearGradient id="paint0_linear_1_170" x1="42.0106" y1="-40.1806" x2="95.9424" y2="55.9493" gradientUnits="userSpaceOnUse">
<stop stop-color="white"/>
<stop offset="0.5" stop-color="white"/>
<stop offset="1"/>
</linearGradient>
<linearGradient id="paint1_linear_1_170" x1="43.9806" y1="20.593" x2="9.79619" y2="20.3199" gradientUnits="userSpaceOnUse">
<stop offset="0.333333" stop-color="#D5D5D1"/>
<stop offset="0.71875" stop-color="#956FFF"/>
</linearGradient>
</defs>
</svg>
