<svg width="23" height="17" viewBox="0 0 23 17" fill="none" xmlns="http://www.w3.org/2000/svg">
<path d="M20.2662 4.00517L11.5751 9.00765L2.8872 4.01013L2.88782 2.01012L11.5758 7.00765L20.2668 2.00517M20.2674 0.00516406L2.88844 0.0101224C1.68277 0.0104664 0.715789 0.900743 0.715445 2.01074L0.711726 14.0108C0.711561 14.5412 0.940278 15.0498 1.34756 15.4248C1.75484 15.7997 2.30733 16.0103 2.88348 16.0101L20.2624 16.0052C20.8386 16.005 21.3912 15.7941 21.7987 15.419C22.2062 15.0438 22.4353 14.535 22.4354 14.0046L22.4392 2.00455C22.4395 0.894545 21.4622 0.00482318 20.2674 0.00516406Z" fill="url(#paint0_linear_119_258)"/>
<defs>
<linearGradient id="paint0_linear_119_258" x1="11.5779" y1="0.00764279" x2="17.5438" y2="5.93667" gradientUnits="userSpaceOnUse">
<stop stop-color="#9F7FF9"/>
<stop offset="1" stop-color="#EBE1F7"/>
</linearGradient>
</defs>
</svg>
