<svg width="102" height="112" viewBox="0 0 102 112" fill="none" xmlns="http://www.w3.org/2000/svg">
<path d="M64.3752 0.713058C63.2785 1.15362 62.0821 2.03474 61.7332 2.60748C61.3842 3.18021 59.8887 7.98234 58.3932 13.3131C56.8977 18.5999 55.6016 23.0055 55.5517 23.0936C55.452 23.1817 52.461 22.7412 48.9217 22.1684C45.3325 21.5957 39.6994 20.7586 36.3595 20.3181C30.4772 19.5691 30.0784 19.5691 25.6417 20.3621C17.6159 21.7719 4.75454 25.8692 2.76054 27.6314C2.11248 28.2041 1.76353 30.4951 1.01578 38.6895C-0.330169 53.3603 -0.330169 87.0633 0.965933 96.4032C1.46443 99.9277 1.96293 103.144 2.11248 103.584C2.66084 105.17 8.19419 106.889 22.5012 109.973L29.9787 111.559L46.479 111.691C62.2815 111.867 63.129 111.823 66.1698 110.942C70.3572 109.708 74.1458 107.726 75.9903 105.919C77.3861 104.51 77.4858 104.157 77.7849 99.4431C78.8816 83.0982 79.4798 34.5042 78.6323 30.9797C78.3831 29.8783 77.7849 29.3937 75.093 28.2482C73.3482 27.4992 70.3572 26.4859 68.5128 26.0894C66.6185 25.6489 64.8737 25.1643 64.5746 24.988C63.8767 24.6356 68.0143 9.39214 69.1608 8.15856C69.9086 7.32149 70.3074 7.40961 83.069 12.432C90.2972 15.2516 96.678 17.5425 97.3261 17.5425C100.018 17.5425 103.109 13.4013 101.464 12.0355C101.065 11.7271 94.1357 8.95157 86.06 5.86764C69.9584 -0.30024 67.9644 -0.784859 64.3752 0.713058ZM42.5409 24.8118C48.2736 25.6929 53.3085 26.4859 53.807 26.6181C54.5547 26.8384 54.6544 27.1468 54.4052 28.5566C54.1559 29.9664 54.2556 30.3188 55.2526 30.9356C56.4989 31.7286 59.7392 31.8608 61.1848 31.2C61.6833 30.9356 62.132 30.3188 62.132 29.8342C62.132 29.3496 62.4311 28.865 62.8299 28.7328C63.6773 28.4244 70.6065 30.2307 70.6065 30.7153C70.6065 30.9356 68.2137 31.6846 65.2725 32.4776L59.8887 33.8433L40.2976 29.6139C29.53 27.279 20.8561 25.2524 21.0057 25.1202C21.4045 24.7237 28.7823 23.358 30.5769 23.3139C31.4742 23.2698 36.858 23.9747 42.5409 24.8118ZM40.7961 31.2C48.9715 33.0063 55.452 34.6364 55.2526 34.7685C55.0532 34.9447 53.5577 35.3413 51.9127 35.6497C49.0214 36.1783 48.3235 36.0902 31.2249 33.0503C11.6837 29.5699 9.49029 29.0853 10.0885 28.5566C10.3377 28.3363 11.9828 27.6755 13.7275 27.1027L16.918 26.0454L21.4543 27.0146C23.9468 27.4992 32.6706 29.4377 40.7961 31.2ZM72.9993 33.9755C72.8996 34.2839 71.5038 37.8525 69.8587 41.9056C67.0173 48.9106 66.8179 49.263 65.5716 49.263C63.9266 49.263 63.7272 48.5141 63.5278 41.3329L63.3782 36.2664L67.6155 34.9007C72.4509 33.3147 73.2485 33.1825 72.9993 33.9755ZM60.8359 40.9364C61.0353 43.1392 61.0353 45.0777 60.8359 45.2539C60.6863 45.3861 58.8917 43.9322 56.8977 41.9937L53.2088 38.4692L56.2995 37.7203C57.9944 37.3238 59.6395 36.9713 59.9386 36.9713C60.2875 36.9273 60.6365 38.4252 60.8359 40.9364ZM49.47 72.7891C49.3205 89.0458 49.0214 104.201 48.8718 106.492L48.5229 110.633L43.488 110.369C38.503 110.149 32.521 108.959 32.9697 108.254C33.1192 108.078 33.867 107.814 34.6646 107.638C36.858 107.241 39.849 104.686 41.5937 101.822C45.5817 95.1696 47.2268 84.6402 47.9247 60.9379C48.3235 47.6329 48.6724 42.6105 49.3205 42.963C49.6196 43.1392 49.7193 53.0959 49.47 72.7891ZM22.2519 49.4833C20.6069 52.8316 19.2609 55.7393 19.2609 55.9155C19.2609 56.1358 23.8471 56.312 29.4802 56.312C35.1132 56.312 39.6994 56.4442 39.6994 56.5764C39.6994 56.9729 14.6249 92.9228 14.4753 92.7465C14.3756 92.7025 16.7186 86.4465 19.6099 78.8688C22.5012 71.2911 24.7444 64.9911 24.5949 64.8589C24.4453 64.7268 20.1582 64.2421 15.0735 63.8456C9.93894 63.4051 5.65184 62.9205 5.50229 62.8323C5.25304 62.6121 24.894 43.0952 25.1432 43.3154C25.1931 43.3595 23.9468 46.135 22.2519 49.4833Z" fill="#151515"/>
<path d="M65.3224 5.85882C65.4719 6.65183 65.6215 8.76653 65.6215 10.5288C65.6215 13.084 65.771 13.7889 66.3194 13.7889C67.4659 13.7889 67.5656 13.3484 67.2167 8.94275C66.9176 5.33014 66.7182 4.75741 65.9206 4.62524C65.123 4.44902 65.0233 4.62524 65.3224 5.85882Z" fill="#151515"/>
</svg>
